<svg width="180" height="130" viewBox="0 0 180 130" fill="none" xmlns="http://www.w3.org/2000/svg">
    <g filter="url(#filter0_f_2066_13847)">
        <path fill-rule="evenodd" clip-rule="evenodd" d="M59.3626 21.0671C60.0469 21.0671 60.9297 21.2016 61.5 22C61.8992 22.4561 61.8147 23.0059 61.9287 23.5192C62.2138 24.7167 63.8676 26.1424 64.951 27.1118C66.1486 28.1952 66.6618 28.8795 67.8023 28.8795C67.9163 28.8795 68.4296 28.8795 68.7717 28.7085C69.513 28.4234 70.0263 27.568 70.7676 26.9977C71.3949 26.4275 72.1362 26.1424 72.7635 26.1424C76.9546 26.1424 75.5607 33.7697 76.185 36.578C76.6412 38.2317 78.7512 39.4292 80.0057 39.4292C81.5454 39.4292 83.085 37.1482 84.3396 37.1482C85.7082 37.1482 86.0504 39.0301 86.2214 39.7144C86.5065 40.7978 86.5636 42.0524 86.7346 43.2499C86.8382 44.1821 87.0651 46.7854 88.2743 46.7854C89.3008 46.7854 90.2025 45.4951 90.8894 44.8082C90.8894 44.8082 90.8894 44.8082 91.408 44.2055C91.408 44.2055 91.7093 43.9041 92.0107 43.6027C93.3219 42.2916 92.0107 43.6027 92.9148 42.6986C95.3258 40.2877 93.8189 41.7945 94.1203 41.4931C95.0244 40.589 99.1137 36.9011 101.281 35.0763C106.242 30.7423 117.283 21 117.283 21C130.333 21 143.382 21 156.432 21C140.287 34.2155 124.114 47.3971 107.948 60.5856C107.606 60.8137 107.378 61.2129 107.378 61.498C107.378 61.669 107.435 61.9542 107.549 62.1252C123.891 77.4301 141.953 93.8429 158.432 109H117.432C117.432 109 97.2148 90.9145 87.3619 81.913C87.1909 81.799 86.9627 81.6279 86.7346 81.5708C86.6206 81.5138 86.4495 81.5708 86.3355 81.5708C86.0504 81.5708 85.8793 81.4568 85.5371 81.7419C83.7694 82.9965 81.8305 85.2775 80.1768 86.9312C78.409 88.5849 76.6412 90.4098 74.9304 92.0635C69.2279 97.4239 62.8411 103.126 56.9105 107.289C55.9981 107.916 54.9716 108.259 54.0022 108.259C53.603 108.259 52.6906 108.145 52.6906 107.46C52.6906 106.662 53.9452 105.978 54.5724 105.407C55.0857 104.894 55.7129 104.438 56.3402 103.982C59.7617 101.245 63.7535 98.1082 67.0609 94.6867C68.0304 93.7173 68.9428 92.4626 69.7412 91.3792C70.7106 89.9536 71.9651 88.4139 72.0792 86.9883C72.1932 86.6461 72.3643 86.0188 72.3643 85.9048C72.3643 85.2775 71.9651 84.7643 71.4519 84.7643C70.8817 84.7643 69.5701 85.5056 69.2279 85.7337C64.7799 88.8701 60.2179 93.261 55.9981 97.4239C55.0286 98.3933 48.2996 104.951 46.1327 104.951C45.9617 104.951 45.7906 104.78 45.6195 104.666V103.012C45.5624 102.613 44.8212 102.328 44.479 102.328C41.2286 102.328 32.1045 109 29.8235 109H27.936C27.936 109 27.8276 108.886 27.8276 108.715C27.8276 108.088 29.8235 106.662 30.1656 106.377C31.5913 105.236 33.0169 104.039 34.4996 103.012C35.583 102.157 36.8376 101.416 37.9781 100.56C38.1492 100.446 38.5483 99.933 38.5483 99.6478C38.5483 99.1916 38.0922 99.1916 37.9211 99.1916C36.6095 99.1916 28.1127 103.412 25.4325 103.412C25.0334 103.412 24.8052 103.297 24.8052 102.955C24.8052 101.986 31.1351 96.9106 31.9904 96.2263C34.9558 93.8313 38.0351 91.2652 41.1145 88.8131C43.2814 87.0453 45.6195 85.2205 47.9005 83.3957C49.7823 81.856 51.8922 80.2023 53.8881 78.6055C54.1732 78.3775 63.333 70 65.5 70C65.7281 70 66 70.3289 66 70.5C66 71.7545 62.7841 75.8113 62.3279 76.3816C62.0427 76.6667 57.5948 82.4262 57.5948 83.1675C57.5948 83.4527 58.108 83.6238 58.2221 83.6238C58.3932 83.6238 59.3626 83.2816 59.8758 82.9965C62.3279 81.7419 64.723 79.1188 67.232 77.0088C69.1709 75.2981 71.68 73.1311 73.5619 71.1352C74.0751 70.622 74.1891 69.9377 74.4172 69.4245C74.5313 68.9683 74.7024 68.4551 74.7594 67.9988V66.8583C74.4742 65.0335 73.4478 64.2922 72.0792 64.2922C70.5395 64.2922 69.1709 65.1476 67.7452 65.1476C67.5742 65.1476 66.2626 64.8625 66.2626 64.8625C65.3341 64.6635 63.9246 63.4399 63.9246 62.4104V58.2475C63.4683 56.0806 61.9857 54.769 60.332 54.769C60.1609 54.769 57.3667 55.2252 57.1956 55.2252C55.0857 55.2252 53.2413 54.2108 52.5 52.5C51.7587 50.7893 52.0633 48.7813 51.6642 47.1276C51.4931 46.3863 51.208 45.759 50.7517 45.0747C50.5806 44.7326 49.7253 43.8772 49.2691 43.8772H47.3873C45.5054 43.478 45.8476 41.254 44.2509 40.3986C43.8517 40.1706 43.3955 40.0565 42.9963 39.9424C42.426 39.7713 42.198 39.1441 41.9699 38.7449C41.9128 38.6308 41.9128 38.4598 41.8558 38.2887C41.7988 38.0606 41.6277 37.7185 41.5137 37.5474C40.7723 36.0077 39.0045 35.0953 37.75 34.2399C37.1797 33.8408 36.5524 33.4986 36.0392 33.0424C32.7318 30.0771 22 21 22 21L59.3626 21.0671Z" fill="url(#paint0_linear_2066_13847)"/>
        <path fill-rule="evenodd" clip-rule="evenodd" d="M59.3626 21.0671C60.0469 21.0671 60.9297 21.2016 61.5 22C61.8992 22.4561 61.8147 23.0059 61.9287 23.5192C62.2138 24.7167 63.8676 26.1424 64.951 27.1118C66.1486 28.1952 66.6618 28.8795 67.8023 28.8795C67.9163 28.8795 68.4296 28.8795 68.7717 28.7085C69.513 28.4234 70.0263 27.568 70.7676 26.9977C71.3949 26.4275 72.1362 26.1424 72.7635 26.1424C76.9546 26.1424 75.5607 33.7697 76.185 36.578C76.6412 38.2317 78.7512 39.4292 80.0057 39.4292C81.5454 39.4292 83.085 37.1482 84.3396 37.1482C85.7082 37.1482 86.0504 39.0301 86.2214 39.7144C86.5065 40.7978 86.5636 42.0524 86.7346 43.2499C86.8382 44.1821 87.0651 46.7854 88.2743 46.7854C89.3008 46.7854 90.2025 45.4951 90.8894 44.8082C90.8894 44.8082 90.8894 44.8082 91.408 44.2055C91.408 44.2055 91.7093 43.9041 92.0107 43.6027C93.3219 42.2916 92.0107 43.6027 92.9148 42.6986C95.3258 40.2877 93.8189 41.7945 94.1203 41.4931C95.0244 40.589 99.1137 36.9011 101.281 35.0763C106.242 30.7423 117.283 21 117.283 21C130.333 21 143.382 21 156.432 21C140.287 34.2155 124.114 47.3971 107.948 60.5856C107.606 60.8137 107.378 61.2129 107.378 61.498C107.378 61.669 107.435 61.9542 107.549 62.1252C123.891 77.4301 141.953 93.8429 158.432 109H117.432C117.432 109 97.2148 90.9145 87.3619 81.913C87.1909 81.799 86.9627 81.6279 86.7346 81.5708C86.6206 81.5138 86.4495 81.5708 86.3355 81.5708C86.0504 81.5708 85.8793 81.4568 85.5371 81.7419C83.7694 82.9965 81.8305 85.2775 80.1768 86.9312C78.409 88.5849 76.6412 90.4098 74.9304 92.0635C69.2279 97.4239 62.8411 103.126 56.9105 107.289C55.9981 107.916 54.9716 108.259 54.0022 108.259C53.603 108.259 52.6906 108.145 52.6906 107.46C52.6906 106.662 53.9452 105.978 54.5724 105.407C55.0857 104.894 55.7129 104.438 56.3402 103.982C59.7617 101.245 63.7535 98.1082 67.0609 94.6867C68.0304 93.7173 68.9428 92.4626 69.7412 91.3792C70.7106 89.9536 71.9651 88.4139 72.0792 86.9883C72.1932 86.6461 72.3643 86.0188 72.3643 85.9048C72.3643 85.2775 71.9651 84.7643 71.4519 84.7643C70.8817 84.7643 69.5701 85.5056 69.2279 85.7337C64.7799 88.8701 60.2179 93.261 55.9981 97.4239C55.0286 98.3933 48.2996 104.951 46.1327 104.951C45.9617 104.951 45.7906 104.78 45.6195 104.666V103.012C45.5624 102.613 44.8212 102.328 44.479 102.328C41.2286 102.328 32.1045 109 29.8235 109H27.936C27.936 109 27.8276 108.886 27.8276 108.715C27.8276 108.088 29.8235 106.662 30.1656 106.377C31.5913 105.236 33.0169 104.039 34.4996 103.012C35.583 102.157 36.8376 101.416 37.9781 100.56C38.1492 100.446 38.5483 99.933 38.5483 99.6478C38.5483 99.1916 38.0922 99.1916 37.9211 99.1916C36.6095 99.1916 28.1127 103.412 25.4325 103.412C25.0334 103.412 24.8052 103.297 24.8052 102.955C24.8052 101.986 31.1351 96.9106 31.9904 96.2263C34.9558 93.8313 38.0351 91.2652 41.1145 88.8131C43.2814 87.0453 45.6195 85.2205 47.9005 83.3957C49.7823 81.856 51.8922 80.2023 53.8881 78.6055C54.1732 78.3775 63.333 70 65.5 70C65.7281 70 66 70.3289 66 70.5C66 71.7545 62.7841 75.8113 62.3279 76.3816C62.0427 76.6667 57.5948 82.4262 57.5948 83.1675C57.5948 83.4527 58.108 83.6238 58.2221 83.6238C58.3932 83.6238 59.3626 83.2816 59.8758 82.9965C62.3279 81.7419 64.723 79.1188 67.232 77.0088C69.1709 75.2981 71.68 73.1311 73.5619 71.1352C74.0751 70.622 74.1891 69.9377 74.4172 69.4245C74.5313 68.9683 74.7024 68.4551 74.7594 67.9988V66.8583C74.4742 65.0335 73.4478 64.2922 72.0792 64.2922C70.5395 64.2922 69.1709 65.1476 67.7452 65.1476C67.5742 65.1476 66.2626 64.8625 66.2626 64.8625C65.3341 64.6635 63.9246 63.4399 63.9246 62.4104V58.2475C63.4683 56.0806 61.9857 54.769 60.332 54.769C60.1609 54.769 57.3667 55.2252 57.1956 55.2252C55.0857 55.2252 53.2413 54.2108 52.5 52.5C51.7587 50.7893 52.0633 48.7813 51.6642 47.1276C51.4931 46.3863 51.208 45.759 50.7517 45.0747C50.5806 44.7326 49.7253 43.8772 49.2691 43.8772H47.3873C45.5054 43.478 45.8476 41.254 44.2509 40.3986C43.8517 40.1706 43.3955 40.0565 42.9963 39.9424C42.426 39.7713 42.198 39.1441 41.9699 38.7449C41.9128 38.6308 41.9128 38.4598 41.8558 38.2887C41.7988 38.0606 41.6277 37.7185 41.5137 37.5474C40.7723 36.0077 39.0045 35.0953 37.75 34.2399C37.1797 33.8408 36.5524 33.4986 36.0392 33.0424C32.7318 30.0771 22 21 22 21L59.3626 21.0671Z" stroke="url(#paint1_linear_2066_13847)"/>
    </g>
    <path fill-rule="evenodd" clip-rule="evenodd" d="M59.3626 21.0671C60.0469 21.0671 60.9297 21.2016 61.5 22C61.8992 22.4561 61.8147 23.0059 61.9287 23.5192C62.2138 24.7167 63.8676 26.1424 64.951 27.1118C66.1486 28.1952 66.6618 28.8795 67.8023 28.8795C67.9163 28.8795 68.4296 28.8795 68.7717 28.7085C69.513 28.4234 70.0263 27.568 70.7676 26.9977C71.3949 26.4275 72.1362 26.1424 72.7635 26.1424C76.9546 26.1424 75.5607 33.7697 76.185 36.578C76.6412 38.2317 78.7512 39.4292 80.0057 39.4292C81.5454 39.4292 83.085 37.1482 84.3396 37.1482C85.7082 37.1482 86.0504 39.0301 86.2214 39.7144C86.5065 40.7978 86.5636 42.0524 86.7346 43.2499C86.8382 44.1821 87.0651 46.7854 88.2743 46.7854C89.3008 46.7854 90.2025 45.4951 90.8894 44.8082C90.8894 44.8082 90.8894 44.8082 91.408 44.2055C91.408 44.2055 91.7093 43.9041 92.0107 43.6027C93.3219 42.2916 92.0107 43.6027 92.9148 42.6986C95.3258 40.2877 93.8189 41.7945 94.1203 41.4931C95.0244 40.589 99.1137 36.9011 101.281 35.0763C106.242 30.7423 117.283 21 117.283 21C130.333 21 143.382 21 156.432 21C140.287 34.2155 124.114 47.3971 107.948 60.5856C107.606 60.8137 107.378 61.2129 107.378 61.498C107.378 61.669 107.435 61.9542 107.549 62.1252C123.891 77.4301 141.953 93.8429 158.432 109H117.432C117.432 109 97.2148 90.9145 87.3619 81.913C87.1909 81.799 86.9627 81.6279 86.7346 81.5708C86.6206 81.5138 86.4495 81.5708 86.3355 81.5708C86.0504 81.5708 85.8793 81.4568 85.5371 81.7419C83.7694 82.9965 81.8305 85.2775 80.1768 86.9312C78.409 88.5849 76.6412 90.4098 74.9304 92.0635C69.2279 97.4239 62.8411 103.126 56.9105 107.289C55.9981 107.916 54.9716 108.259 54.0022 108.259C53.603 108.259 52.6906 108.145 52.6906 107.46C52.6906 106.662 53.9452 105.978 54.5724 105.407C55.0857 104.894 55.7129 104.438 56.3402 103.982C59.7617 101.245 63.7535 98.1082 67.0609 94.6867C68.0304 93.7173 68.9428 92.4626 69.7412 91.3792C70.7106 89.9536 71.9651 88.4139 72.0792 86.9883C72.1932 86.6461 72.3643 86.0188 72.3643 85.9048C72.3643 85.2775 71.9651 84.7643 71.4519 84.7643C70.8817 84.7643 69.5701 85.5056 69.2279 85.7337C64.7799 88.8701 60.2179 93.261 55.9981 97.4239C55.0286 98.3933 48.2996 104.951 46.1327 104.951C45.9617 104.951 45.7906 104.78 45.6195 104.666V103.012C45.5624 102.613 44.8212 102.328 44.479 102.328C41.2286 102.328 32.1045 109 29.8235 109H27.936C27.936 109 27.8276 108.886 27.8276 108.715C27.8276 108.088 29.8235 106.662 30.1656 106.377C31.5913 105.236 33.0169 104.039 34.4996 103.012C35.583 102.157 36.8376 101.416 37.9781 100.56C38.1492 100.446 38.5483 99.933 38.5483 99.6478C38.5483 99.1916 38.0922 99.1916 37.9211 99.1916C36.6095 99.1916 28.1127 103.412 25.4325 103.412C25.0334 103.412 24.8052 103.297 24.8052 102.955C24.8052 101.986 31.1351 96.9106 31.9904 96.2263C34.9558 93.8313 38.0351 91.2652 41.1145 88.8131C43.2814 87.0453 45.6195 85.2205 47.9005 83.3957C49.7823 81.856 51.8922 80.2023 53.8881 78.6055C54.1732 78.3775 63.333 70 65.5 70C65.7281 70 66 70.3289 66 70.5C66 71.7545 62.7841 75.8113 62.3279 76.3816C62.0427 76.6667 57.5948 82.4262 57.5948 83.1675C57.5948 83.4527 58.108 83.6238 58.2221 83.6238C58.3932 83.6238 59.3626 83.2816 59.8758 82.9965C62.3279 81.7419 64.723 79.1188 67.232 77.0088C69.1709 75.2981 71.68 73.1311 73.5619 71.1352C74.0751 70.622 74.1891 69.9377 74.4172 69.4245C74.5313 68.9683 74.7024 68.4551 74.7594 67.9988V66.8583C74.4742 65.0335 73.4478 64.2922 72.0792 64.2922C70.5395 64.2922 69.1709 65.1476 67.7452 65.1476C67.5742 65.1476 66.2626 64.8625 66.2626 64.8625C65.3341 64.6635 63.9246 63.4399 63.9246 62.4104V58.2475C63.4683 56.0806 61.9857 54.769 60.332 54.769C60.1609 54.769 57.3667 55.2252 57.1956 55.2252C55.0857 55.2252 53.2413 54.2108 52.5 52.5C51.7587 50.7893 52.0633 48.7813 51.6642 47.1276C51.4931 46.3863 51.208 45.759 50.7517 45.0747C50.5806 44.7326 49.7253 43.8772 49.2691 43.8772H47.3873C45.5054 43.478 45.8476 41.254 44.2509 40.3986C43.8517 40.1706 43.3955 40.0565 42.9963 39.9424C42.426 39.7713 42.198 39.1441 41.9699 38.7449C41.9128 38.6308 41.9128 38.4598 41.8558 38.2887C41.7988 38.0606 41.6277 37.7185 41.5137 37.5474C40.7723 36.0077 39.0045 35.0953 37.75 34.2399C37.1797 33.8408 36.5524 33.4986 36.0392 33.0424C32.7318 30.0771 22 21 22 21L59.3626 21.0671Z" fill="black" stroke="url(#paint2_linear_2066_13847)"/>
    <defs>
        <filter id="filter0_f_2066_13847" x="0.631714" y="0.498047" width="179.082" height="129.002" filterUnits="userSpaceOnUse" color-interpolation-filters="sRGB">
            <feFlood flood-opacity="0" result="BackgroundImageFix"/>
            <feBlend mode="normal" in="SourceGraphic" in2="BackgroundImageFix" result="shape"/>
            <feGaussianBlur stdDeviation="10" result="effect1_foregroundBlur_2066_13847"/>
        </filter>
        <linearGradient id="paint0_linear_2066_13847" x1="144.803" y1="102.381" x2="41.1949" y2="19.3193" gradientUnits="userSpaceOnUse">
            <stop stop-color="#80FF7D"/>
            <stop offset="0.5" stop-color="#80FFFF"/>
            <stop offset="1" stop-color="#FF80F2"/>
        </linearGradient>
        <linearGradient id="paint1_linear_2066_13847" x1="157.96" y1="24.7053" x2="28.05" y2="108.148" gradientUnits="userSpaceOnUse">
            <stop stop-color="#80FF7D"/>
            <stop offset="0.5" stop-color="#80FFFF"/>
            <stop offset="1" stop-color="#FF7DF2"/>
        </linearGradient>
        <linearGradient id="paint2_linear_2066_13847" x1="157.96" y1="24.7053" x2="28.05" y2="108.148" gradientUnits="userSpaceOnUse">
            <stop stop-color="#80FF7D"/>
            <stop offset="0.5" stop-color="#80FFFF"/>
            <stop offset="1" stop-color="#FF7DF2"/>
        </linearGradient>
    </defs>
</svg>
